HIERARCHY
ROOT SpineBase
{
  OFFSET 0.000000 0.000000 0.000000
  CHANNELS 6 Xposition Yposition Zposition Zrotation Xrotation Yrotation
  JOINT SpineMid
  {
    OFFSET -0.000000 35.575432 0.000000
    CHANNELS 3 Zrotation Xrotation Yrotation
    JOINT SpineShoulder
    {
      OFFSET -0.396027 26.359563 -0.902333
      CHANNELS 3 Zrotation Xrotation Yrotation
      JOINT Neck
      {
        OFFSET -0.172608 8.699324 -0.675175
        CHANNELS 3 Zrotation Xrotation Yrotation
        JOINT Head
        {
          OFFSET -0.729727 10.610546 3.565137
          CHANNELS 3 Zrotation Xrotation Yrotation
          End Site
          {
            OFFSET 0 0 0
          }
        }
      }
      JOINT ShoulderLeft
      {
        OFFSET -11.361030 -7.565379 -11.883114
        CHANNELS 3 Zrotation Xrotation Yrotation
        JOINT ElbowLeft
        {
          OFFSET -4.817881 -26.169160 0.346813
          CHANNELS 3 Zrotation Xrotation Yrotation
          JOINT WristLeft
          {
            OFFSET 0.498883 -19.514092 11.999995
            CHANNELS 3 Zrotation Xrotation Yrotation
            JOINT HandLeft
            {
              OFFSET -1.209243 -5.562984 -3.395067
              CHANNELS 3 Zrotation Xrotation Yrotation
              JOINT HandTipLeft
              {
                OFFSET -1.676024 -5.998545 -0.607171
                CHANNELS 3 Zrotation Xrotation Yrotation
                End Site
                {
                  OFFSET 0 0 0
                }
              }
              JOINT ThumbLeft
              {
                OFFSET -2.665058 3.150151 3.428605
                CHANNELS 3 Zrotation Xrotation Yrotation
                End Site
                {
                  OFFSET 0 0 0
                }
              }
            }
          }
        }
      }
      JOINT ShoulderRight
      {
        OFFSET 9.349865 -5.227128 -4.490257
        CHANNELS 3 Zrotation Xrotation Yrotation
        JOINT ElbowRight
        {
          OFFSET -23.110270 -19.862191 -10.214568
          CHANNELS 3 Zrotation Xrotation Yrotation
          JOINT WristRight
          {
            OFFSET -6.951534 -21.722252 7.284876
            CHANNELS 3 Zrotation Xrotation Yrotation
            JOINT HandRight
            {
              OFFSET 3.952252 -6.396185 4.341889
              CHANNELS 3 Zrotation Xrotation Yrotation
              JOINT HandTipRight
              {
                OFFSET -2.293692 -7.283082 2.607326
                CHANNELS 3 Zrotation Xrotation Yrotation
                End Site
                {
                  OFFSET 0 0 0
                }
              }
              JOINT ThumbRight
              {
                OFFSET -3.482709 0.325411 2.318841
                CHANNELS 3 Zrotation Xrotation Yrotation
                End Site
                {
                  OFFSET 0 0 0
                }
              }
            }
          }
        }
      }
    }
  }
  JOINT HipLeft
  {
    OFFSET -7.115156 0.948900 -4.757379
    CHANNELS 3 Zrotation Xrotation Yrotation
    JOINT KneeLeft
    {
      OFFSET -0.035650 -31.096789 0.751760
      CHANNELS 3 Zrotation Xrotation Yrotation
      JOINT AnkleLeft
      {
        OFFSET -0.310075 -33.973899 -2.525032
        CHANNELS 3 Zrotation Xrotation Yrotation
        JOINT FootLeft
        {
          OFFSET 3.387850 -3.315011 -13.006590
          CHANNELS 3 Zrotation Xrotation Yrotation
          End Site
          {
            OFFSET 0 0 0
          }
        }
      }
    }
  }
  JOINT HipRight
  {
    OFFSET 6.324139 0.931597 -1.777257
    CHANNELS 3 Zrotation Xrotation Yrotation
    JOINT KneeRight
    {
      OFFSET 5.313413 -33.006038 5.223659
      CHANNELS 3 Zrotation Xrotation Yrotation
      JOINT AnkleRight
      {
        OFFSET 2.106970 -33.787341 1.620630
        CHANNELS 3 Zrotation Xrotation Yrotation
        JOINT FootRight
        {
          OFFSET 3.171624 -3.364375 -13.006585
          CHANNELS 3 Zrotation Xrotation Yrotation
          End Site
          {
            OFFSET 0 0 0
          }
        }
      }
    }
  }
}
MOTION
Frames: 9
Frame Time: 0.033333
29.984430 69.774319 270.555926 0.000000 0.000000 -12.502853 -0.000000 0.000000 12.502853 -0.000000 0.000000 0.000000 -0.000000 0.000000 0.000000 0.000000 0.000000 0.000000 -0.000000 0.000000 0.000000 -0.000000 0.000000 0.000000 -0.000000 0.000000 0.000000 -0.000000 0.000000 0.000000 0.000000 0.000000 0.000000 0.000000 0.000000 0.000000 -0.000000 0.000000 0.000000 -0.000000 0.000000 0.000000 -0.000000 0.000000 0.000000 -0.000000 0.000000 0.000000 0.000000 0.000000 0.000000 0.000000 0.000000 0.000000 -0.000000 0.000000 12.502853 -0.000000 0.000000 0.000000 -0.000000 0.000000 0.000000 0.000000 0.000000 0.000000 -0.000000 0.000000 12.502853 -0.000000 0.000000 0.000000 -0.000000 0.000000 0.000000 0.000000 0.000000 0.000000
29.778282 68.942332 270.531414 -0.175709 -0.092187 -16.280101 0.142821 0.137748 16.279788 -0.000000 0.000000 0.000000 1.008549 0.089211 -0.333241 0.000000 0.000000 0.000000 -0.000000 0.000000 0.000000 -0.000000 0.000000 0.000000 2.695654 -1.151217 -1.383605 -4.036480 -0.382431 1.980612 0.000000 0.000000 0.000000 0.000000 0.000000 0.000000 -1.408846 0.886235 -0.290409 -2.115212 2.958319 -2.038698 2.321478 -4.271966 1.190231 1.820342 3.520836 0.471519 0.000000 0.000000 0.000000 0.000000 0.000000 0.000000 1.326210 -0.538290 16.307925 -0.946080 0.981032 -0.015900 0.234729 -0.154851 -1.082348 0.000000 0.000000 0.000000 0.142821 0.137748 16.279788 -0.000000 0.000000 0.000000 0.228690 -0.197952 -1.075455 0.000000 0.000000 0.000000
29.623257 68.345481 270.477560 -0.300656 -0.143617 -18.317729 0.240287 0.230830 18.316868 -0.000000 0.000000 0.000000 1.914013 0.182371 -0.632600 0.000000 0.000000 0.000000 0.335581 1.166482 -0.213876 -0.331293 -1.167707 0.207083 4.086175 -1.914739 -2.046803 -6.265788 -0.895202 3.135753 0.000000 0.000000 0.000000 0.000000 0.000000 0.000000 -2.490698 1.612847 -0.542894 -3.899960 5.527908 -3.608494 4.696735 -7.875011 2.379145 3.055678 6.481954 0.773491 0.000000 0.000000 0.000000 0.000000 0.000000 0.000000 2.360049 -0.769653 18.369726 -1.697076 1.617048 -0.018938 0.437150 -0.282915 -2.014694 0.000000 0.000000 0.000000 1.557526 0.423076 18.479212 -1.310225 0.235247 -0.167171 0.425867 -0.360501 -2.002040 0.000000 0.000000 0.000000
29.519355 67.983767 270.394363 -0.378017 -0.156189 -18.828062 0.307387 0.269826 18.826823 -0.000000 0.000000 0.000000 2.715425 0.281014 -0.897665 0.000000 0.000000 0.000000 0.647520 1.481312 -0.272852 -0.640674 -1.484285 0.256182 4.448580 -2.356133 -2.157602 -7.092236 -1.455532 3.606901 0.000000 0.000000 0.000000 0.000000 0.000000 0.000000 -3.258067 2.183184 -0.769417 -5.422187 7.679816 -4.783149 7.103659 -10.843692 3.615623 3.736147 8.798994 0.933255 0.000000 0.000000 0.000000 0.000000 0.000000 0.000000 3.016486 -0.783181 18.894868 -2.223184 1.872672 -0.019567 0.607986 -0.382248 -2.794976 0.000000 0.000000 0.000000 2.205545 0.181059 18.986486 -1.766041 0.701486 -0.156321 0.592677 -0.485735 -2.778133 0.000000 0.000000 0.000000
29.466575 67.857191 270.281823 -0.409606 -0.130712 -17.875293 0.349715 0.250126 17.874062 -0.000000 0.000000 0.000000 3.412225 0.386501 -1.128149 0.000000 0.000000 0.000000 1.046111 1.594211 -0.294762 -1.038301 -1.599308 0.265714 3.850640 -2.514605 -1.755892 -6.651806 -2.064732 3.435092 0.000000 0.000000 0.000000 0.000000 0.000000 0.000000 -3.721104 2.600482 -0.978984 -6.748630 9.421622 -5.629193 9.553755 -13.228310 4.948006 3.878410 10.453019 0.958320 0.000000 0.000000 0.000000 0.000000 0.000000 0.000000 3.264722 -0.625297 17.946154 -3.354214 1.490293 0.064481 1.597048 -0.213180 -3.492003 0.000000 0.000000 0.000000 2.710383 -0.468162 17.972114 -2.024359 1.411167 -0.068626 0.730135 -0.572125 -3.402678 0.000000 0.000000 0.000000
29.464917 67.965751 270.139941 -0.395991 -0.066966 -15.380157 0.364050 0.169591 15.379387 -0.000000 0.000000 0.000000 4.004164 0.500014 -1.323853 0.000000 0.000000 0.000000 1.517412 1.503797 -0.277401 -1.510640 -1.510601 0.237570 2.178775 -2.406814 -0.773940 -4.860805 -2.791366 2.561706 0.000000 0.000000 0.000000 0.000000 0.000000 0.000000 -3.887142 2.867165 -1.177888 -7.934857 10.774970 -6.198945 12.075595 -15.073947 6.419681 3.483195 11.477661 0.839229 0.000000 0.000000 0.000000 0.000000 0.000000 0.000000 3.121892 -0.304116 15.445232 -3.536196 0.888359 0.059264 1.860571 -0.188746 -3.978710 0.000000 0.000000 0.000000 2.965696 -1.541812 15.359162 -2.057199 2.338006 0.093371 0.839060 -0.618480 -3.875015 0.000000 0.000000 0.000000
29.526764 68.354131 269.958859 -0.308947 0.057497 -12.083326 0.314138 0.008451 12.083458 -0.000000 0.000000 0.000000 4.457136 0.632815 -1.472700 0.000000 0.000000 0.000000 1.914717 1.063859 -0.188872 -1.911533 -1.069570 0.153250 -1.374245 -1.807111 1.218417 0.427770 -3.105865 0.189407 0.000000 0.000000 0.000000 0.000000 0.000000 0.000000 -3.290836 2.686230 -1.297008 -9.106114 11.773016 -6.419080 14.904101 -16.085335 8.407269 3.467565 12.546203 0.211302 0.000000 0.000000 0.000000 0.000000 0.000000 0.000000 2.574647 -0.038810 12.137852 -3.332640 0.170608 0.050432 2.033812 -0.126620 -4.147818 0.000000 0.000000 0.000000 2.454802 -2.409018 11.927732 -1.596937 2.806374 0.239702 0.894032 -0.576284 -4.042354 0.000000 0.000000 0.000000
29.640663 68.968377 269.756379 -0.189908 0.209687 -5.483231 0.209076 -0.190579 5.483926 -0.000000 0.000000 0.000000 4.795131 0.765541 -1.583291 0.000000 0.000000 0.000000 2.443095 0.540369 -0.078940 -2.442458 -0.543243 0.055837 -7.362609 -1.364167 4.674315 6.520949 -5.103647 -3.142436 0.000000 0.000000 0.000000 0.000000 0.000000 0.000000 -2.607195 2.554049 -1.515448 -10.325275 12.282159 -6.428292 18.994099 -17.453665 10.729998 -0.634438 12.020542 -0.275072 0.000000 0.000000 0.000000 0.000000 0.000000 0.000000 1.822452 0.726362 5.516464 -2.926929 -1.145099 0.023401 2.165733 -0.049545 -4.235327 0.000000 0.000000 0.000000 1.747047 -4.074214 5.081357 -1.191145 4.003407 0.501464 0.928489 -0.529593 -4.124983 0.000000 0.000000 0.000000
29.776998 69.750132 269.544358 -0.056153 0.371189 2.969842 0.036847 -0.373600 -2.969540 -0.638949 0.561382 -0.035339 5.734423 0.361287 -1.590200 0.000000 0.000000 0.000000 3.662149 -0.557588 0.111303 -3.022681 0.001728 -0.040146 -15.996366 -1.757737 9.731471 13.529549 -13.201367 -6.588301 0.000000 0.000000 0.000000 0.000000 0.000000 0.000000 -1.464118 1.936798 -1.703509 -11.274592 12.663363 -6.413552 21.733556 -17.847609 12.639096 -3.926540 10.246061 -0.628010 0.000000 0.000000 0.000000 0.000000 0.000000 0.000000 1.266596 1.861475 -2.961245 -2.432403 -2.762246 -0.002581 2.295243 0.070739 -4.370775 0.000000 0.000000 0.000000 0.494613 -5.780100 -3.688177 -0.807621 5.365510 0.781079 1.811561 1.795312 -4.961968 0.000000 0.000000 0.000000
